<svg version="1.1" id="Layer_1" xmlns="http://www.w3.org/2000/svg" xmlns:xlink="http://www.w3.org/1999/xlink" x="0px" y="0px"
	 width="100%" viewBox="0 0 446 456" enable-background="new 0 0 446 456" xml:space="preserve">
<path fill="#000101" opacity="1.000000" stroke="none" 
	d="
M288.000000,457.000000 
	C192.026459,457.000000 96.552902,457.000000 1.039678,457.000000 
	C1.039678,305.068573 1.039678,153.137115 1.039678,1.102830 
	C149.556870,1.102830 298.113831,1.102830 446.835388,1.102830 
	C446.835388,152.999847 446.835388,304.999908 446.835388,457.000000 
	C394.137085,457.000000 341.318542,457.000000 288.000000,457.000000 
M68.754669,221.821243 
	C68.694984,222.194794 68.635292,222.568329 68.575623,222.941864 
	C68.306679,222.738312 68.037743,222.534760 67.768799,222.331223 
	C68.005547,222.249435 68.242294,222.167648 67.547844,222.131744 
	C64.528458,215.344711 64.645546,208.955795 70.504730,202.667496 
	C62.708202,206.918106 56.093513,205.776276 49.754696,200.086014 
	C53.557888,207.585068 53.191444,214.021057 46.452618,220.076752 
	C48.678234,219.893875 49.882973,220.044662 50.891914,219.669235 
	C55.563702,217.930908 59.899128,218.114883 64.123123,221.057083 
	C65.227806,221.826569 66.920250,221.752274 68.754669,221.821243 
M244.314209,287.047424 
	C246.481018,286.379730 250.252167,286.141785 250.564072,284.977295 
	C253.382446,274.455017 255.595154,263.770569 258.153870,252.383957 
	C238.217285,252.383957 219.136871,252.383957 199.273529,252.383957 
	C201.588089,242.278030 203.972946,232.956451 205.766602,223.522476 
	C206.536392,219.473785 208.340576,218.588989 212.129761,218.628708 
	C229.458069,218.810349 246.789871,218.766891 264.118713,218.611923 
	C265.748352,218.597336 268.529785,217.537888 268.808533,216.456314 
	C271.495697,206.030319 273.760803,195.495544 276.205750,184.731476 
	C274.709045,184.526932 273.755524,184.283371 272.801788,184.282700 
	C242.140656,184.261108 211.479279,184.319595 180.818710,184.186539 
	C177.162384,184.170670 176.521393,186.021759 175.860840,188.918045 
	C165.011246,236.490341 154.072952,284.042389 143.147446,331.597351 
	C142.648926,333.767273 142.083069,335.921722 141.347916,338.894806 
	C139.211823,336.925354 137.818390,335.768829 136.571411,334.471558 
	C119.855057,317.080780 113.715416,296.506195 118.694092,272.910980 
	C122.409172,255.304337 131.132416,239.992905 141.680618,225.630508 
	C142.635727,224.330063 143.352753,222.854736 144.180359,221.460632 
	C142.581238,221.129639 141.745819,221.282928 141.131500,221.736008 
	C123.435806,234.787201 108.409973,250.218704 99.519180,270.657104 
	C89.916740,292.731445 89.699738,314.718597 102.306587,335.860443 
	C114.949921,357.063416 134.978226,368.386078 157.868927,374.653625 
	C193.422012,384.388123 228.475937,381.096863 262.814545,368.272949 
	C289.193054,358.421783 312.294464,343.772614 330.569122,322.064301 
	C331.691498,320.731079 332.363556,319.018768 333.245117,317.482849 
	C286.670746,357.039764 234.419693,371.204712 174.817322,357.292816 
	C175.455032,355.012909 175.954941,353.459137 176.322876,351.874725 
	C180.955917,331.923767 185.666214,311.989746 190.103653,291.995239 
	C190.942459,288.215729 192.398041,286.891235 196.365921,286.951050 
	C212.026199,287.187164 227.692139,287.047638 244.314209,287.047424 
M112.961441,157.471344 
	C106.037476,163.896011 99.133667,170.338074 94.498848,178.795242 
	C97.210724,177.176117 99.319916,174.948105 101.647186,172.977692 
	C127.613609,150.992920 157.479523,137.594803 191.192215,133.184204 
	C219.868256,129.432541 247.749146,131.997345 273.770599,145.852997 
	C302.661652,161.236649 317.033295,190.010742 310.864594,220.301468 
	C307.129883,238.640289 298.086121,254.499115 287.073273,269.358429 
	C286.088654,270.686951 285.162811,272.058990 284.209656,273.410828 
	C284.616669,273.693237 285.023712,273.975647 285.430756,274.258057 
	C310.045654,257.144470 329.190979,235.809296 335.319061,205.243011 
	C339.785217,182.966324 333.420929,163.261429 318.164215,146.651337 
	C304.912933,132.224655 287.901825,123.944656 269.239319,118.984398 
	C246.141068,112.845184 222.775620,112.816322 199.370056,117.030678 
	C167.255936,122.813065 138.272446,135.417450 112.961441,157.471344 
M81.119339,211.524277 
	C73.650230,228.370514 72.342911,245.173477 81.137352,262.907471 
	C81.765831,261.513702 82.101471,261.089050 82.127777,260.645996 
	C82.186607,259.654968 82.152992,258.648315 82.049675,257.659241 
	C80.330032,241.197128 84.887238,226.310303 93.744080,212.658356 
	C107.807274,190.981369 127.777550,176.377075 151.112686,166.184631 
	C177.735138,154.556351 205.507874,149.934631 234.483475,153.846695 
	C236.576263,154.129242 238.652924,154.531113 240.737091,154.877502 
	C240.870407,154.378632 241.003723,153.879745 241.137039,153.380859 
	C238.936966,152.573486 236.781830,151.602692 234.530075,150.983231 
	C199.843613,141.441010 166.515686,146.088669 134.520203,161.414307 
	C111.793671,172.300171 92.934998,187.717010 81.119339,211.524277 
M351.535095,238.999481 
	C350.105988,235.870987 348.676880,232.742477 347.501617,230.169693 
	C347.501617,235.831696 347.894928,241.654968 347.431427,247.409241 
	C345.707733,268.809143 335.371307,286.137299 320.029846,300.260345 
	C285.984283,331.602020 245.538025,344.937347 199.425705,341.191620 
	C196.716080,340.971527 193.973022,341.163086 190.899384,341.163086 
	C191.504959,341.807617 191.685303,342.148712 191.960159,342.263580 
	C192.723969,342.582733 193.521286,342.826965 194.315506,343.067322 
	C217.929413,350.214752 241.711655,349.605194 265.348175,343.704803 
	C293.660492,336.637207 318.487915,323.224030 337.119324,300.226471 
	C351.438965,282.551086 358.374542,262.682922 351.535095,238.999481 
M377.415680,287.755096 
	C378.294312,283.261353 379.172974,278.767609 380.033752,274.365295 
	C377.611298,274.745270 374.160919,276.062195 370.992615,275.568634 
	C367.724823,275.059601 364.731476,272.788513 360.478638,270.739349 
	C366.010681,278.929077 363.767731,285.412842 358.509613,291.921234 
	C365.697815,287.963715 372.330658,288.070526 378.621063,294.011475 
	C378.773834,293.535553 378.926575,293.059631 379.079315,292.583710 
	C378.620605,291.225708 378.161865,289.867706 377.415680,287.755096 
M362.134613,332.219269 
	C361.691803,335.153259 361.248962,338.087219 360.880951,340.525391 
	C364.534851,340.906250 368.275696,341.296143 371.445618,341.626556 
	C371.913177,338.155304 372.399323,334.545990 372.816803,331.446381 
	C369.900330,330.878174 366.605103,330.177521 363.279358,329.681458 
	C362.956238,329.633270 362.444489,330.849640 362.134613,332.219269 
M57.016262,160.510162 
	C56.601223,161.490234 56.186180,162.470306 55.957310,163.010773 
	C59.915928,163.412964 63.569248,163.784134 66.838768,164.116318 
	C67.290512,160.809921 67.802490,157.062653 68.229523,153.937103 
	C64.648811,153.494644 60.902557,153.031738 57.277073,152.583755 
	C57.277073,154.908722 57.277073,157.343948 57.016262,160.510162 
M387.024048,308.981232 
	C382.204895,308.865753 385.253357,312.492004 383.897217,314.310516 
	C386.064545,314.439453 387.636475,314.532990 389.208435,314.626526 
	C387.529663,312.980225 393.284119,309.419006 387.024048,308.981232 
M45.157768,181.482483 
	C43.537106,180.705856 41.916447,179.929245 39.966076,178.994614 
	C39.696873,181.444122 39.524525,183.012314 39.327511,184.804977 
	C41.237801,185.029953 42.888206,185.224319 44.558704,185.421051 
	C44.742630,184.086197 44.874763,183.127243 45.157768,181.482483 
z"/>
<path fill="#0181D0" opacity="1.000000" stroke="none" 
	d="
M243.835098,287.047424 
	C227.692139,287.047638 212.026199,287.187164 196.365921,286.951050 
	C192.398041,286.891235 190.942459,288.215729 190.103653,291.995239 
	C185.666214,311.989746 180.955917,331.923767 176.322876,351.874725 
	C175.954941,353.459137 175.455032,355.012909 174.817322,357.292816 
	C234.419693,371.204712 286.670746,357.039764 333.245117,317.482849 
	C332.363556,319.018768 331.691498,320.731079 330.569122,322.064301 
	C312.294464,343.772614 289.193054,358.421783 262.814545,368.272949 
	C228.475937,381.096863 193.422012,384.388123 157.868927,374.653625 
	C134.978226,368.386078 114.949921,357.063416 102.306587,335.860443 
	C89.699738,314.718597 89.916740,292.731445 99.519180,270.657104 
	C108.409973,250.218704 123.435806,234.787201 141.131500,221.736008 
	C141.745819,221.282928 142.581238,221.129639 144.180359,221.460632 
	C143.352753,222.854736 142.635727,224.330063 141.680618,225.630508 
	C131.132416,239.992905 122.409172,255.304337 118.694092,272.910980 
	C113.715416,296.506195 119.855057,317.080780 136.571411,334.471558 
	C137.818390,335.768829 139.211823,336.925354 141.347916,338.894806 
	C142.083069,335.921722 142.648926,333.767273 143.147446,331.597351 
	C154.072952,284.042389 165.011246,236.490341 175.860840,188.918045 
	C176.521393,186.021759 177.162384,184.170670 180.818710,184.186539 
	C211.479279,184.319595 242.140656,184.261108 272.801788,184.282700 
	C273.755524,184.283371 274.709045,184.526932 276.205750,184.731476 
	C273.760803,195.495544 271.495697,206.030319 268.808533,216.456314 
	C268.529785,217.537888 265.748352,218.597336 264.118713,218.611923 
	C246.789871,218.766891 229.458069,218.810349 212.129761,218.628708 
	C208.340576,218.588989 206.536392,219.473785 205.766602,223.522476 
	C203.972946,232.956451 201.588089,242.278030 199.273529,252.383957 
	C219.136871,252.383957 238.217285,252.383957 258.153870,252.383957 
	C255.595154,263.770569 253.382446,274.455017 250.564072,284.977295 
	C250.252167,286.141785 246.481018,286.379730 243.835098,287.047424 
z"/>
<path fill="#0180CF" opacity="1.000000" stroke="none" 
	d="
M113.220657,157.227936 
	C138.272446,135.417450 167.255936,122.813065 199.370056,117.030678 
	C222.775620,112.816322 246.141068,112.845184 269.239319,118.984398 
	C287.901825,123.944656 304.912933,132.224655 318.164215,146.651337 
	C333.420929,163.261429 339.785217,182.966324 335.319061,205.243011 
	C329.190979,235.809296 310.045654,257.144470 285.430756,274.258057 
	C285.023712,273.975647 284.616669,273.693237 284.209656,273.410828 
	C285.162811,272.058990 286.088654,270.686951 287.073273,269.358429 
	C298.086121,254.499115 307.129883,238.640289 310.864594,220.301468 
	C317.033295,190.010742 302.661652,161.236649 273.770599,145.852997 
	C247.749146,131.997345 219.868256,129.432541 191.192215,133.184204 
	C157.479523,137.594803 127.613609,150.992920 101.647186,172.977692 
	C99.319916,174.948105 97.210724,177.176117 94.498848,178.795242 
	C99.133667,170.338074 106.037476,163.896011 113.220657,157.227936 
z"/>
<path fill="#00A9F1" opacity="1.000000" stroke="none" 
	d="
M81.279175,211.185638 
	C92.934998,187.717010 111.793671,172.300171 134.520203,161.414307 
	C166.515686,146.088669 199.843613,141.441010 234.530075,150.983231 
	C236.781830,151.602692 238.936966,152.573486 241.137039,153.380859 
	C241.003723,153.879745 240.870407,154.378632 240.737091,154.877502 
	C238.652924,154.531113 236.576263,154.129242 234.483475,153.846695 
	C205.507874,149.934631 177.735138,154.556351 151.112686,166.184631 
	C127.777550,176.377075 107.807274,190.981369 93.744080,212.658356 
	C84.887238,226.310303 80.330032,241.197128 82.049675,257.659241 
	C82.152992,258.648315 82.186607,259.654968 82.127777,260.645996 
	C82.101471,261.089050 81.765831,261.513702 81.137352,262.907471 
	C72.342911,245.173477 73.650230,228.370514 81.279175,211.185638 
z"/>
<path fill="#00AAF2" opacity="1.000000" stroke="none" 
	d="
M351.684387,239.369278 
	C358.374542,262.682922 351.438965,282.551086 337.119324,300.226471 
	C318.487915,323.224030 293.660492,336.637207 265.348175,343.704803 
	C241.711655,349.605194 217.929413,350.214752 194.315506,343.067322 
	C193.521286,342.826965 192.723969,342.582733 191.960159,342.263580 
	C191.685303,342.148712 191.504959,341.807617 190.899384,341.163086 
	C193.973022,341.163086 196.716080,340.971527 199.425705,341.191620 
	C245.538025,344.937347 285.984283,331.602020 320.029846,300.260345 
	C335.371307,286.137299 345.707733,268.809143 347.431427,247.409241 
	C347.894928,241.654968 347.501617,235.831696 347.501617,230.169693 
	C348.676880,232.742477 350.105988,235.870987 351.684387,239.369278 
z"/>
<path fill="#53B5EE" opacity="1.000000" stroke="none" 
	d="
M68.342758,222.065475 
	C66.920250,221.752274 65.227806,221.826569 64.123123,221.057083 
	C59.899128,218.114883 55.563702,217.930908 50.891914,219.669235 
	C49.882973,220.044662 48.678234,219.893875 46.452618,220.076752 
	C53.191444,214.021057 53.557888,207.585068 49.754696,200.086014 
	C56.093513,205.776276 62.708202,206.918106 70.504730,202.667496 
	C64.645546,208.955795 64.528458,215.344711 67.982086,222.085602 
	C68.416321,222.039474 68.342758,222.065475 68.342758,222.065475 
z"/>
<path fill="#53B6EF" opacity="1.000000" stroke="none" 
	d="
M377.559387,288.132385 
	C378.161865,289.867706 378.620605,291.225708 379.079315,292.583710 
	C378.926575,293.059631 378.773834,293.535553 378.621063,294.011475 
	C372.330658,288.070526 365.697815,287.963715 358.509613,291.921234 
	C363.767731,285.412842 366.010681,278.929077 360.478638,270.739349 
	C364.731476,272.788513 367.724823,275.059601 370.992615,275.568634 
	C374.160919,276.062195 377.611298,274.745270 380.033752,274.365295 
	C379.172974,278.767609 378.294312,283.261353 377.559387,288.132385 
z"/>
<path fill="#009EE2" opacity="1.000000" stroke="none" 
	d="
M362.077454,331.849121 
	C362.444489,330.849640 362.956238,329.633270 363.279358,329.681458 
	C366.605103,330.177521 369.900330,330.878174 372.816803,331.446381 
	C372.399323,334.545990 371.913177,338.155304 371.445618,341.626556 
	C368.275696,341.296143 364.534851,340.906250 360.880951,340.525391 
	C361.248962,338.087219 361.691803,335.153259 362.077454,331.849121 
z"/>
<path fill="#00A0E5" opacity="1.000000" stroke="none" 
	d="
M57.146667,160.144669 
	C57.277073,157.343948 57.277073,154.908722 57.277073,152.583755 
	C60.902557,153.031738 64.648811,153.494644 68.229523,153.937103 
	C67.802490,157.062653 67.290512,160.809921 66.838768,164.116318 
	C63.569248,163.784134 59.915928,163.412964 55.957310,163.010773 
	C56.186180,162.470306 56.601223,161.490234 57.146667,160.144669 
z"/>
<path fill="#0164A2" opacity="1.000000" stroke="none" 
	d="
M387.360901,309.038605 
	C393.284119,309.419006 387.529663,312.980225 389.208435,314.626526 
	C387.636475,314.532990 386.064545,314.439453 383.897217,314.310516 
	C385.253357,312.492004 382.204895,308.865753 387.360901,309.038605 
z"/>
<path fill="#0167A7" opacity="1.000000" stroke="none" 
	d="
M45.082333,181.825378 
	C44.874763,183.127243 44.742630,184.086197 44.558704,185.421051 
	C42.888206,185.224319 41.237801,185.029953 39.327511,184.804977 
	C39.524525,183.012314 39.696873,181.444122 39.966076,178.994614 
	C41.916447,179.929245 43.537106,180.705856 45.082333,181.825378 
z"/>
<path fill="#53B5EE" opacity="1.000000" stroke="none" 
	d="
M68.447678,222.062668 
	C68.242294,222.167648 68.005547,222.249435 67.768799,222.331207 
	C68.037743,222.534760 68.306679,222.738312 68.575615,222.941864 
	C68.635292,222.568329 68.694984,222.194794 68.548714,221.943359 
	C68.342758,222.065475 68.416321,222.039474 68.447678,222.062668 
z"/>
</svg>