<svg version="1.1" id="Layer_1" xmlns="http://www.w3.org/2000/svg" xmlns:xlink="http://www.w3.org/1999/xlink" x="0px" y="0px"
	 width="100%" viewBox="0 0 513 496" enable-background="new 0 0 513 496" xml:space="preserve">
<path fill="#FEFFFF" opacity="1.000000" stroke="none" 
	d="
M335.000000,497.000000 
	C223.333359,497.000000 112.166718,497.000000 1.000060,497.000000 
	C1.000040,331.666718 1.000040,166.333466 1.000020,1.000148 
	C171.999893,1.000099 342.999786,1.000099 513.999756,1.000049 
	C513.999878,166.333191 513.999878,331.666382 513.999939,496.999786 
	C454.500000,497.000000 395.000000,497.000000 335.000000,497.000000 
M238.489655,336.762817 
	C237.092438,336.931427 235.695206,337.100067 234.297974,337.268677 
	C234.292358,337.484314 234.286743,337.699921 234.281128,337.915558 
	C235.845215,338.294647 237.409302,338.673767 239.613510,339.408569 
	C285.059418,354.087067 348.556183,336.340210 379.689362,300.107483 
	C392.578094,285.107605 400.968719,268.237152 399.434998,247.788589 
	C398.842133,239.884247 396.817139,232.333542 391.786957,225.879578 
	C395.990753,247.994919 389.580597,267.358002 376.111298,284.414703 
	C351.320618,315.808197 317.510834,331.439606 278.820953,336.844086 
	C265.787445,338.664734 252.281570,337.103790 238.489655,336.762817 
M239.768082,283.425568 
	C256.929291,283.423950 274.091034,283.479645 291.250916,283.327972 
	C292.885071,283.313538 295.682404,282.304230 295.953888,281.246857 
	C298.639771,270.786926 300.906250,260.219360 303.452667,248.970428 
	C283.606964,248.970428 264.383331,248.970428 244.488068,248.970428 
	C246.869904,238.542633 249.208710,228.861099 251.235840,219.114746 
	C251.911377,215.866928 253.344421,214.872421 256.614441,214.908264 
	C271.608398,215.072571 286.605164,214.980377 301.600922,214.980331 
	C313.778290,214.980286 313.785034,214.981842 316.553619,202.924988 
	C318.215515,195.687531 319.852325,188.444290 321.592194,180.800339 
	C319.279388,180.689835 317.812805,180.559235 316.346130,180.558640 
	C286.687836,180.546677 257.028900,180.647278 227.372025,180.441147 
	C223.071106,180.411240 221.775116,181.959320 220.888718,185.869415 
	C210.207001,232.987778 199.344437,280.065155 188.525558,327.152374 
	C187.983002,329.513824 187.408615,331.867920 186.811539,334.383484 
	C185.790497,334.013367 185.263168,333.956024 184.922363,333.673615 
	C183.897873,332.824677 182.899994,331.932831 181.972748,330.978973 
	C164.833588,313.347443 158.902618,292.410461 164.151230,268.492889 
	C167.894257,251.436081 176.327133,236.524399 186.539169,222.537598 
	C187.911270,220.658279 188.980179,218.557602 190.189484,216.559433 
	C165.452606,233.235550 145.860214,253.723419 139.472824,283.691010 
	C134.754410,305.828278 140.333694,325.597382 155.172791,342.728882 
	C167.863190,357.379761 184.393967,365.904755 202.611588,370.881989 
	C239.222427,380.884460 275.192474,377.330597 310.345184,363.764496 
	C335.286407,354.139221 357.290955,340.123901 374.795380,319.629181 
	C376.874786,317.194519 378.392334,314.280029 380.170319,311.587921 
	C379.832153,311.301483 379.493958,311.015045 379.155792,310.728577 
	C358.774689,332.339172 333.520660,345.483673 305.296478,353.111359 
	C276.784332,360.816833 248.171844,361.584167 220.053970,352.984070 
	C220.727356,350.878082 221.449036,349.064026 221.886795,347.183807 
	C226.458344,327.548737 230.931213,307.890442 235.613220,288.281952 
	C236.035339,286.514069 237.725830,285.049072 239.768082,283.425568 
M381.794342,193.301208 
	C382.893707,170.991684 374.549744,152.723221 358.181213,137.828323 
	C348.271729,128.810959 336.697327,122.641861 324.187897,118.285492 
	C301.428314,110.359558 278.027374,108.695427 254.205582,111.932846 
	C209.863571,117.959007 171.540436,135.476028 142.349396,170.438431 
	C141.308456,171.685165 140.627258,173.232254 139.778397,174.639374 
	C145.986771,170.728867 151.182816,165.916580 156.807953,161.673065 
	C184.790985,140.562943 216.616425,129.960205 251.403381,128.172073 
	C275.086029,126.954720 298.033661,130.576233 319.000031,142.245758 
	C345.120911,156.784210 359.354340,178.623764 357.129822,209.278183 
	C355.971313,225.242569 349.297974,239.490082 340.952667,252.931793 
	C337.607361,258.320068 333.914459,263.492493 330.248962,268.958282 
	C348.773468,266.449524 378.858276,222.523590 381.794342,193.301208 
M160.304413,184.770538 
	C196.556534,155.585220 237.922379,144.559082 284.071686,150.110092 
	C281.342224,148.495178 278.673492,147.203339 275.886139,146.263046 
	C273.531525,145.468750 271.066040,144.898041 268.604248,144.542007 
	C219.188858,137.395752 176.119629,150.367249 140.982941,186.260574 
	C127.167244,200.373795 119.197960,217.714462 120.309677,238.165100 
	C120.762817,246.500717 123.040184,254.320587 128.081039,261.257111 
	C125.417313,247.714401 127.072762,234.758072 132.177155,222.123779 
	C138.132202,207.384018 148.244476,195.788315 160.304413,184.770538 
M97.172249,207.150818 
	C95.785294,210.233475 94.398331,213.316116 92.401749,217.753738 
	C100.555061,213.213608 107.162239,214.811966 113.619225,220.009430 
	C109.180130,212.510254 110.575439,205.933167 115.048599,199.125412 
	C107.749634,202.772888 101.468750,201.855667 95.045448,195.734116 
	C95.981522,200.326233 96.592667,203.324326 97.172249,207.150818 
M417.535156,286.304413 
	C419.288757,287.417755 421.042358,288.531097 424.213165,290.544250 
	C421.622711,282.229095 422.342834,275.415527 427.663055,269.326233 
	C419.882568,273.769806 413.071930,272.876343 406.376984,267.029694 
	C410.399963,274.485626 409.903198,280.863251 403.909973,286.778015 
	C408.891296,286.501251 412.819946,286.282959 417.535156,286.304413 
M102.327347,156.341293 
	C101.797516,157.566284 101.267685,158.791275 101.022682,159.357712 
	C105.257919,159.876968 109.143066,160.353317 112.368889,160.748810 
	C112.787575,157.180435 113.231544,153.396545 113.610039,150.170685 
	C110.043892,149.693268 106.007431,149.152893 102.588676,148.695206 
	C102.588676,150.801773 102.588676,153.232590 102.327347,156.341293 
M405.847900,335.800781 
	C406.002106,336.412689 406.141266,337.553711 406.312744,337.558594 
	C409.934174,337.661560 413.559235,337.636505 416.809875,337.636505 
	C417.283905,334.559814 417.878296,330.702026 418.381409,327.436615 
	C414.844818,327.009216 410.901733,326.532715 407.473297,326.118408 
	C407.095276,328.827972 406.655975,331.976593 405.847900,335.800781 
M431.924957,310.787659 
	C432.852203,310.984467 433.779449,311.181274 434.865723,311.411865 
	C435.070740,309.380463 435.256012,307.544617 435.442261,305.699188 
	C433.464203,305.427521 431.721649,305.188232 428.794769,304.786285 
	C429.735718,307.134613 430.463074,308.949829 431.924957,310.787659 
M90.461220,177.983826 
	C88.724854,177.058411 86.988487,176.132996 84.848053,174.992233 
	C84.664139,177.851242 84.553558,179.570282 84.445290,181.253342 
	C86.482025,181.551239 88.203423,181.803009 89.983742,182.063400 
	C90.080383,180.848297 90.168221,179.743912 90.461220,177.983826 
z"/>
<path fill="#0585D5" opacity="1.000000" stroke="none" 
	d="
M239.297699,283.434509 
	C237.725830,285.049072 236.035339,286.514069 235.613220,288.281952 
	C230.931213,307.890442 226.458344,327.548737 221.886795,347.183807 
	C221.449036,349.064026 220.727356,350.878082 220.053970,352.984070 
	C248.171844,361.584167 276.784332,360.816833 305.296478,353.111359 
	C333.520660,345.483673 358.774689,332.339172 379.155792,310.728577 
	C379.493958,311.015045 379.832153,311.301483 380.170319,311.587921 
	C378.392334,314.280029 376.874786,317.194519 374.795380,319.629181 
	C357.290955,340.123901 335.286407,354.139221 310.345184,363.764496 
	C275.192474,377.330597 239.222427,380.884460 202.611588,370.881989 
	C184.393967,365.904755 167.863190,357.379761 155.172791,342.728882 
	C140.333694,325.597382 134.754410,305.828278 139.472824,283.691010 
	C145.860214,253.723419 165.452606,233.235550 190.189484,216.559433 
	C188.980179,218.557602 187.911270,220.658279 186.539169,222.537598 
	C176.327133,236.524399 167.894257,251.436081 164.151230,268.492889 
	C158.902618,292.410461 164.833588,313.347443 181.972748,330.978973 
	C182.899994,331.932831 183.897873,332.824677 184.922363,333.673615 
	C185.263168,333.956024 185.790497,334.013367 186.811539,334.383484 
	C187.408615,331.867920 187.983002,329.513824 188.525558,327.152374 
	C199.344437,280.065155 210.207001,232.987778 220.888718,185.869415 
	C221.775116,181.959320 223.071106,180.411240 227.372025,180.441147 
	C257.028900,180.647278 286.687836,180.546677 316.346130,180.558640 
	C317.812805,180.559235 319.279388,180.689835 321.592194,180.800339 
	C319.852325,188.444290 318.215515,195.687531 316.553619,202.924988 
	C313.785034,214.981842 313.778290,214.980286 301.600922,214.980331 
	C286.605164,214.980377 271.608398,215.072571 256.614441,214.908264 
	C253.344421,214.872421 251.911377,215.866928 251.235840,219.114746 
	C249.208710,228.861099 246.869904,238.542633 244.488068,248.970428 
	C264.383331,248.970428 283.606964,248.970428 303.452667,248.970428 
	C300.906250,260.219360 298.639771,270.786926 295.953888,281.246857 
	C295.682404,282.304230 292.885071,283.313538 291.250916,283.327972 
	C274.091034,283.479645 256.929291,283.423950 239.297699,283.434509 
z"/>
<path fill="#0886D5" opacity="1.000000" stroke="none" 
	d="
M381.773132,193.770309 
	C378.858276,222.523590 348.773468,266.449524 330.248962,268.958282 
	C333.914459,263.492493 337.607361,258.320068 340.952667,252.931793 
	C349.297974,239.490082 355.971313,225.242569 357.129822,209.278183 
	C359.354340,178.623764 345.120911,156.784210 319.000031,142.245758 
	C298.033661,130.576233 275.086029,126.954720 251.403381,128.172073 
	C216.616425,129.960205 184.790985,140.562943 156.807953,161.673065 
	C151.182816,165.916580 145.986771,170.728867 139.778397,174.639374 
	C140.627258,173.232254 141.308456,171.685165 142.349396,170.438431 
	C171.540436,135.476028 209.863571,117.959007 254.205582,111.932846 
	C278.027374,108.695427 301.428314,110.359558 324.187897,118.285492 
	C336.697327,122.641861 348.271729,128.810959 358.181213,137.828323 
	C374.549744,152.723221 382.893707,170.991684 381.773132,193.770309 
z"/>
<path fill="#0CB5FD" opacity="1.000000" stroke="none" 
	d="
M160.030304,184.995575 
	C148.244476,195.788315 138.132202,207.384018 132.177155,222.123779 
	C127.072762,234.758072 125.417313,247.714401 128.081039,261.257111 
	C123.040184,254.320587 120.762817,246.500717 120.309677,238.165100 
	C119.197960,217.714462 127.167244,200.373795 140.982941,186.260574 
	C176.119629,150.367249 219.188858,137.395752 268.604248,144.542007 
	C271.066040,144.898041 273.531525,145.468750 275.886139,146.263046 
	C278.673492,147.203339 281.342224,148.495178 284.071686,150.110092 
	C237.922379,144.559082 196.556534,155.585220 160.030304,184.995575 
z"/>
<path fill="#0AB4FD" opacity="1.000000" stroke="none" 
	d="
M238.991592,337.088379 
	C252.281570,337.103790 265.787445,338.664734 278.820953,336.844086 
	C317.510834,331.439606 351.320618,315.808197 376.111298,284.414703 
	C389.580597,267.358002 395.990753,247.994919 391.786957,225.879578 
	C396.817139,232.333542 398.842133,239.884247 399.434998,247.788589 
	C400.968719,268.237152 392.578094,285.107605 379.689362,300.107483 
	C348.556183,336.340210 285.059418,354.087067 239.287811,338.903259 
	C238.971939,337.961426 238.981766,337.524902 238.991592,337.088379 
z"/>
<path fill="#67C7FF" opacity="1.000000" stroke="none" 
	d="
M97.188034,206.736603 
	C96.592667,203.324326 95.981522,200.326233 95.045448,195.734116 
	C101.468750,201.855667 107.749634,202.772888 115.048599,199.125412 
	C110.575439,205.933167 109.180130,212.510254 113.619225,220.009430 
	C107.162239,214.811966 100.555061,213.213608 92.401749,217.753738 
	C94.398331,213.316116 95.785294,210.233475 97.188034,206.736603 
z"/>
<path fill="#65C6FF" opacity="1.000000" stroke="none" 
	d="
M417.141876,286.184540 
	C412.819946,286.282959 408.891296,286.501251 403.909973,286.778015 
	C409.903198,280.863251 410.399963,274.485626 406.376984,267.029694 
	C413.071930,272.876343 419.882568,273.769806 427.663055,269.326233 
	C422.342834,275.415527 421.622711,282.229095 424.213165,290.544250 
	C421.042358,288.531097 419.288757,287.417755 417.141876,286.184540 
z"/>
<path fill="#1DBAFD" opacity="1.000000" stroke="none" 
	d="
M102.458008,156.002350 
	C102.588676,153.232590 102.588676,150.801773 102.588676,148.695206 
	C106.007431,149.152893 110.043892,149.693268 113.610039,150.170685 
	C113.231544,153.396545 112.787575,157.180435 112.368889,160.748810 
	C109.143066,160.353317 105.257919,159.876968 101.022682,159.357712 
	C101.267685,158.791275 101.797516,157.566284 102.458008,156.002350 
z"/>
<path fill="#20BBFD" opacity="1.000000" stroke="none" 
	d="
M406.032288,335.462982 
	C406.655975,331.976593 407.095276,328.827972 407.473297,326.118408 
	C410.901733,326.532715 414.844818,327.009216 418.381409,327.436615 
	C417.878296,330.702026 417.283905,334.559814 416.809875,337.636505 
	C413.559235,337.636505 409.934174,337.661560 406.312744,337.558594 
	C406.141266,337.553711 406.002106,336.412689 406.032288,335.462982 
z"/>
<path fill="#319BDC" opacity="1.000000" stroke="none" 
	d="
M431.557678,310.776367 
	C430.463074,308.949829 429.735718,307.134613 428.794769,304.786285 
	C431.721649,305.188232 433.464203,305.427521 435.442261,305.699188 
	C435.256012,307.544617 435.070740,309.380463 434.865723,311.411865 
	C433.779449,311.181274 432.852203,310.984467 431.557678,310.776367 
z"/>
<path fill="#369DDD" opacity="1.000000" stroke="none" 
	d="
M90.358635,178.311676 
	C90.168221,179.743912 90.080383,180.848297 89.983742,182.063400 
	C88.203423,181.803009 86.482025,181.551239 84.445290,181.253342 
	C84.553558,179.570282 84.664139,177.851242 84.848053,174.992233 
	C86.988487,176.132996 88.724854,177.058411 90.358635,178.311676 
z"/>
<path fill="#39C2FD" opacity="1.000000" stroke="none" 
	d="
M238.740631,336.925598 
	C238.981766,337.524902 238.971939,337.961426 238.967743,338.725403 
	C237.409302,338.673767 235.845215,338.294647 234.281128,337.915558 
	C234.286743,337.699921 234.292358,337.484314 234.297974,337.268677 
	C235.695206,337.100067 237.092438,336.931427 238.740631,336.925598 
z"/>
</svg>